<svg xmlns="http://www.w3.org/2000/svg" height="24" viewBox="0 -960 960 960" width="24"><path d="M124.652-164.652v-113.174h77.13v-273.391q0-92.913 55.479-167.207 55.478-74.293 145.391-99.533v-19.282q0-32.228 22.582-54.788 22.582-22.56 54.841-22.56 32.26 0 54.767 22.56 22.506 22.56 22.506 54.788v19.282q89.913 25 145.891 98.653 55.979 73.653 55.979 168.087v273.391h77.13v113.174H124.652Zm356.109-332.391Zm-.557 465.347q-38.67 0-65.915-27.305-27.246-27.307-27.246-65.651h186.153q0 38.478-27.317 65.717-27.316 27.24-65.675 27.24Zm-165.247-246.13h331.086v-273.289q0-68.863-48.72-117.124Q548.602-716.5 479.92-716.5q-68.681 0-116.822 48.289-48.141 48.29-48.141 116.994v273.391Z"/></svg>